<svg xmlns="http://www.w3.org/2000/svg" viewBox="0 64 180 50"><path class="s" fill="#143E5A" d="M25 70.25V64L0 70.7v15.62l18.75-5.02v3.13L0 89.45v6.25L25 89V73.38L6.25 78.4v-3.13"/><path class="1" fill="#BDD755" d="M6.25 97.15L0 98.82v5.8h6.25"/><path class="2" fill="#59B6A0" d="M15.63 94.64L9.38 96.3v13h6.25"/><path class="3" fill="#0082AC" d="M25 114h-6.25V93.8L25 92.12"/><path class="smashfly" fill="#143E5A" d="M46.53 87.42l-.7-.3c-1.18-.5-1.58-.8-1.58-1.47 0-.57.44-.95 1.1-.95.58 0 1.08.18 1.58 1.08l.13.24 2.65-1.7-.1-.22c-.9-1.63-2.3-2.4-4.2-2.4-2.6 0-4.4 1.64-4.4 4 0 2.63 1.7 3.72 3.6 4.5l.7.3c1.3.58 1.9.86 1.9 1.64 0 .68-.6 1.13-1.6 1.13-1.1 0-1.9-.48-2.5-1.6l-.1-.2-2.8 1.57.1.22c1 1.93 2.98 3.03 5.4 3.03 3 0 4.98-1.7 4.98-4.2s-1.5-3.7-3.9-4.7M58 81.7v14.4h3v-5.4c0-.3 0-.7-.02-1.1l-.02-.4.25.3c.3.3.5.6.7.8l2.8 3.1h.5l2.9-3.16c.2-.2.5-.5.7-.85l.3-.38V96h3.3V81.7h-.6L65 89.05l-6.64-7.3h-.58zm28.1 0h-.58l-6.3 14.4h3.3l.67-1.6h5.2L89 96h3.55L86 81.7zm-1.74 9.9l.8-2c.15-.4.3-.8.46-1.3l.1-.4.17.3.5 1.27.8 2.02h-2.9zm20.23-4.3l-.7-.3c-1.2-.5-1.6-.8-1.6-1.5 0-.6.44-1 1.1-1 .6 0 1.1.16 1.6 1.06l.2.24 2.63-1.7-.1-.2c-.9-1.6-2.3-2.4-4.23-2.4-2.6 0-4.4 1.66-4.4 4 0 2.65 1.7 3.7 3.56 4.5l.7.3c1.3.6 1.9.88 1.9 1.66 0 .7-.66 1.12-1.65 1.12-1.1 0-1.9-.5-2.55-1.6l-.13-.2L98 93l.1.22c1 1.93 2.94 3.03 5.4 3.03 3 0 4.94-1.67 4.94-4.2 0-2.5-1.5-3.66-3.96-4.7m14.6-5.54h-3.34v14.3h3.3V92h5.37v4.18h3.4v-14.3h-3.3v7.04H119m25.54 0h-5.47v-4.1h6.02v-3h-9.4v14.3h3.3v-4.2h5.4m11.4-10.06h-3.4V96.1h9.6v-3h-6.2m20.5-11.25L174 86.4c-.2.4-.45.97-.72 1.66l-.1.3-.1-.3c-.3-.68-.56-1.25-.78-1.65l-2.5-4.5h-3.75l5.4 9.7v4.6h3.36v-4.8l5.1-9.4h-3.5z"/></svg>