<svg xmlns="http://www.w3.org/2000/svg" viewBox="0 0 140 80"><path class="s" fill="#143E5A" d="M82.5 6.25V0l-25 6.7v15.62l18.75-5.02v3.13L57.5 25.45v6.25l25-6.7V9.37L63.75 14.4v-3.13z"/><path class="s" fill="#BDD755" d="M63.75 33.15l-6.25 1.67v5.8h6.25z"/><path class="s" fill="#59B6A0" d="M73.13 30.64l-6.25 1.67v13h6.25z"/><path class="s" fill="#0082AC" d="M82.5 50h-6.25V29.8l6.25-1.68z"/><path class="smashfly" fill="#143E5A" d="M6.53 71.1l-.7-.3c-1.2-.5-1.58-.8-1.58-1.46 0-.57.43-.95 1.1-.95.58 0 1.08.15 1.58 1.04l.13.25L9.7 68l-.12-.2c-.92-1.64-2.27-2.4-4.24-2.4-2.6 0-4.4 1.64-4.4 4 0 2.63 1.7 3.7 3.54 4.5l.7.3c1.33.58 1.9.86 1.9 1.64 0 .67-.65 1.13-1.64 1.13-1.12 0-1.88-.48-2.57-1.6l-.13-.2L0 76.74l.1.22C1.1 78.9 3.06 80 5.5 80c3 0 4.95-1.65 4.95-4.2 0-2.5-1.5-3.65-3.92-4.7m11.25-5.68v14.4H21V74.4c0-.28 0-.64-.02-1.07l-.02-.42.26.36c.26.35.5.65.7.88l2.8 3.13h.5l2.8-3.14c.2-.2.45-.5.72-.86l.25-.33-.05.43-.02 1.07v5.42h3.25v-14.4h-.63L25 72.76l-6.65-7.3h-.6zm27.52 0l-6.25 14.4h3.3l.65-1.56h5.22l.65 1.56h3.55l-6.52-14.4h-.6zm1.7 9.95h-2.84l.84-2c.14-.34.3-.76.45-1.26l.12-.35.13.38c.16.5.3.93.45 1.25L47 75.4zm17.4-4.27l-.7-.3c-1.18-.5-1.57-.8-1.57-1.47 0-.56.44-.94 1.1-.94.58-.04 1.08.15 1.58 1.04l.16.25L67.6 68l-.13-.2c-.93-1.64-2.28-2.4-4.25-2.4-2.6 0-4.4 1.64-4.4 4 0 2.63 1.7 3.7 3.55 4.5l.7.3c1.32.58 1.9.87 1.9 1.64 0 .68-.66 1.13-1.65 1.13-1.1 0-1.88-.48-2.56-1.6l-.14-.2-2.74 1.58.1.22C59 78.9 60.94 80 63.4 80c3 0 4.95-1.65 4.95-4.2 0-2.5-1.5-3.65-3.92-4.7M79 65.56h-3.34v14.26H79v-4.18h5.36v4.18h3.36V65.56h-3.36v7.02H79zm25.54 7.02h-5.47v-4h6.02v-3.02h-9.4v14.26h3.35v-4.18h5.47zm11.4-7.02h-3.34v14.26h9.57v-3h-6.22zm20.56 0l-2.38 4.56c-.22.4-.46.96-.73 1.65l-.15.3-.12-.3c-.28-.68-.54-1.26-.75-1.65l-2.5-4.56h-3.74l5.4 9.7v4.56h3.37v-4.8l5.07-9.46h-3.5z"/></svg>