<?xml version="1.0" encoding="utf-8"?>
<svg xmlns="http://www.w3.org/2000/svg">
<symbol id="df" viewBox="0 0 48 48"><path d="M13 48C5.8 48 0 42.2 0 35s5.8-13 13-13h9v-9c0-7.2 5.8-13 13-13s13 5.8 13 13h-4c0-5-4-9-9-9s-9 4-9 9v9h9v4h-9v9c0 7.2-5.8 13-13 13zm0-22c-5 0-9 4-9 9s4 9 9 9 9-4 9-9v-9h-9z"/>
</symbol>
<symbol id="next" viewBox="0 0 27.58 48"><path fill="#28bda4" d="M18.88 24.71L.59 43c-.78.78-.78 2.05 0 2.83l1.58 1.58c.78.78 2.05.78 2.83 0l22-22c.78-.78.78-2.05 0-2.83L5 .58C4.22-.2 2.95-.2 2.17.58L.59 2.17C-.2 2.95-.2 4.22.59 5l18.3 18.3c.38.38.38 1.02-.01 1.41z"/>
</symbol>
<symbol id="previous" viewBox="0 0 27.58 48"><path fill="#28bda4" d="M8.7 23.29L27 5c.78-.78.78-2.05 0-2.83L25.42.59c-.78-.78-2.05-.78-2.83 0l-22 22c-.78.78-.78 2.05 0 2.83l22 22c.78.78 2.05.78 2.83 0L27 45.83c.78-.78.78-2.05 0-2.83L8.7 24.71c-.39-.39-.39-1.03 0-1.42z"/>
</symbol>
<symbol id="sprite">
<symbol id="df" viewBox="0 0 48 48"><path d="M13 48C5.8 48 0 42.2 0 35s5.8-13 13-13h9v-9c0-7.2 5.8-13 13-13s13 5.8 13 13h-4c0-5-4-9-9-9s-9 4-9 9v9h9v4h-9v9c0 7.2-5.8 13-13 13zm0-22c-5 0-9 4-9 9s4 9 9 9 9-4 9-9v-9h-9z"/>
</symbol>
<symbol id="next" viewBox="0 0 27.58 48"><path fill="#28bda4" d="M18.88 24.71L.59 43c-.78.78-.78 2.05 0 2.83l1.58 1.58c.78.78 2.05.78 2.83 0l22-22c.78-.78.78-2.05 0-2.83L5 .58C4.22-.2 2.95-.2 2.17.58L.59 2.17C-.2 2.95-.2 4.22.59 5l18.3 18.3c.38.38.38 1.02-.01 1.41z"/>
</symbol>
<symbol id="previous" viewBox="0 0 27.58 48"><path fill="#28bda4" d="M8.7 23.29L27 5c.78-.78.78-2.05 0-2.83L25.42.59c-.78-.78-2.05-.78-2.83 0l-22 22c-.78.78-.78 2.05 0 2.83l22 22c.78.78 2.05.78 2.83 0L27 45.83c.78-.78.78-2.05 0-2.83L8.7 24.71c-.39-.39-.39-1.03 0-1.42z"/>
</symbol>
<symbol id="sprite">
<symbol id="df" viewBox="0 0 48 48"><path d="M13 48C5.8 48 0 42.2 0 35s5.8-13 13-13h9v-9c0-7.2 5.8-13 13-13s13 5.8 13 13h-4c0-5-4-9-9-9s-9 4-9 9v9h9v4h-9v9c0 7.2-5.8 13-13 13zm0-22c-5 0-9 4-9 9s4 9 9 9 9-4 9-9v-9h-9z"/>
</symbol>
<symbol id="next" viewBox="0 0 27.58 48"><path fill="#28bda4" d="M18.88 24.71L.59 43c-.78.78-.78 2.05 0 2.83l1.58 1.58c.78.78 2.05.78 2.83 0l22-22c.78-.78.78-2.05 0-2.83L5 .58C4.22-.2 2.95-.2 2.17.58L.59 2.17C-.2 2.95-.2 4.22.59 5l18.3 18.3c.38.38.38 1.02-.01 1.41z"/>
</symbol>
<symbol id="previous" viewBox="0 0 27.58 48"><path fill="#28bda4" d="M8.7 23.29L27 5c.78-.78.78-2.05 0-2.83L25.42.59c-.78-.78-2.05-.78-2.83 0l-22 22c-.78.78-.78 2.05 0 2.83l22 22c.78.78 2.05.78 2.83 0L27 45.83c.78-.78.78-2.05 0-2.83L8.7 24.71c-.39-.39-.39-1.03 0-1.42z"/>
</symbol>
<symbol id="sprite">
<symbol id="df" viewBox="0 0 48 48"><path d="M13 48C5.8 48 0 42.2 0 35s5.8-13 13-13h9v-9c0-7.2 5.8-13 13-13s13 5.8 13 13h-4c0-5-4-9-9-9s-9 4-9 9v9h9v4h-9v9c0 7.2-5.8 13-13 13zm0-22c-5 0-9 4-9 9s4 9 9 9 9-4 9-9v-9h-9z"/>
</symbol>
<symbol id="next" viewBox="0 0 27.58 48"><path fill="#28bda4" d="M18.88 24.71L.59 43c-.78.78-.78 2.05 0 2.83l1.58 1.58c.78.78 2.05.78 2.83 0l22-22c.78-.78.78-2.05 0-2.83L5 .58C4.22-.2 2.95-.2 2.17.58L.59 2.17C-.2 2.95-.2 4.22.59 5l18.3 18.3c.38.38.38 1.02-.01 1.41z"/>
</symbol>
<symbol id="previous" viewBox="0 0 27.58 48"><path fill="#28bda4" d="M8.7 23.29L27 5c.78-.78.78-2.05 0-2.83L25.42.59c-.78-.78-2.05-.78-2.83 0l-22 22c-.78.78-.78 2.05 0 2.83l22 22c.78.78 2.05.78 2.83 0L27 45.83c.78-.78.78-2.05 0-2.83L8.7 24.71c-.39-.39-.39-1.03 0-1.42z"/>
</symbol>
<symbol id="sprite">
<symbol id="df" viewBox="0 0 48 48"><path d="M13 48C5.8 48 0 42.2 0 35s5.8-13 13-13h9v-9c0-7.2 5.8-13 13-13s13 5.8 13 13h-4c0-5-4-9-9-9s-9 4-9 9v9h9v4h-9v9c0 7.2-5.8 13-13 13zm0-22c-5 0-9 4-9 9s4 9 9 9 9-4 9-9v-9h-9z"/>
</symbol>
<symbol id="next" viewBox="0 0 27.58 48"><path fill="#28bda4" d="M18.88 24.71L.59 43c-.78.78-.78 2.05 0 2.83l1.58 1.58c.78.78 2.05.78 2.83 0l22-22c.78-.78.78-2.05 0-2.83L5 .58C4.22-.2 2.95-.2 2.17.58L.59 2.17C-.2 2.95-.2 4.22.59 5l18.3 18.3c.38.38.38 1.02-.01 1.41z"/>
</symbol>
<symbol id="previous" viewBox="0 0 27.58 48"><path fill="#28bda4" d="M8.7 23.29L27 5c.78-.78.78-2.05 0-2.83L25.42.59c-.78-.78-2.05-.78-2.83 0l-22 22c-.78.78-.78 2.05 0 2.83l22 22c.78.78 2.05.78 2.83 0L27 45.83c.78-.78.78-2.05 0-2.83L8.7 24.71c-.39-.39-.39-1.03 0-1.42z"/>
</symbol>
<symbol id="sprite">
<symbol id="df" viewBox="0 0 48 48"><path d="M13 48C5.8 48 0 42.2 0 35s5.8-13 13-13h9v-9c0-7.2 5.8-13 13-13s13 5.8 13 13h-4c0-5-4-9-9-9s-9 4-9 9v9h9v4h-9v9c0 7.2-5.8 13-13 13zm0-22c-5 0-9 4-9 9s4 9 9 9 9-4 9-9v-9h-9z"/>
</symbol>
<symbol id="next" viewBox="0 0 27.58 48"><path fill="#28bda4" d="M18.88 24.71L.59 43c-.78.78-.78 2.05 0 2.83l1.58 1.58c.78.78 2.05.78 2.83 0l22-22c.78-.78.78-2.05 0-2.83L5 .58C4.22-.2 2.95-.2 2.17.58L.59 2.17C-.2 2.95-.2 4.22.59 5l18.3 18.3c.38.38.38 1.02-.01 1.41z"/>
</symbol>
<symbol id="previous" viewBox="0 0 27.58 48"><path fill="#28bda4" d="M8.7 23.29L27 5c.78-.78.78-2.05 0-2.83L25.42.59c-.78-.78-2.05-.78-2.83 0l-22 22c-.78.78-.78 2.05 0 2.83l22 22c.78.78 2.05.78 2.83 0L27 45.83c.78-.78.78-2.05 0-2.83L8.7 24.71c-.39-.39-.39-1.03 0-1.42z"/>
</symbol>
<symbol id="sprite">
<symbol id="df" viewBox="0 0 48 48"><path d="M13 48C5.8 48 0 42.2 0 35s5.8-13 13-13h9v-9c0-7.2 5.8-13 13-13s13 5.8 13 13h-4c0-5-4-9-9-9s-9 4-9 9v9h9v4h-9v9c0 7.2-5.8 13-13 13zm0-22c-5 0-9 4-9 9s4 9 9 9 9-4 9-9v-9h-9z"/>
</symbol>
<symbol id="next" viewBox="0 0 27.58 48"><path fill="#28bda4" d="M18.88 24.71L.59 43c-.78.78-.78 2.05 0 2.83l1.58 1.58c.78.78 2.05.78 2.83 0l22-22c.78-.78.78-2.05 0-2.83L5 .58C4.22-.2 2.95-.2 2.17.58L.59 2.17C-.2 2.95-.2 4.22.59 5l18.3 18.3c.38.38.38 1.02-.01 1.41z"/>
</symbol>
<symbol id="previous" viewBox="0 0 27.58 48"><path fill="#28bda4" d="M8.7 23.29L27 5c.78-.78.78-2.05 0-2.83L25.42.59c-.78-.78-2.05-.78-2.83 0l-22 22c-.78.78-.78 2.05 0 2.83l22 22c.78.78 2.05.78 2.83 0L27 45.83c.78-.78.78-2.05 0-2.83L8.7 24.71c-.39-.39-.39-1.03 0-1.42z"/>
</symbol>
</symbol>
</symbol>
</symbol>
</symbol>
</symbol>
</symbol></svg>